<svg width="80" height="195" viewBox="0 0 80 195" fill="none" xmlns="http://www.w3.org/2000/svg">
<path d="M0.950981 194.588V179.765V164.941H15.7745H30.598V179.765V194.588H15.7745H0.950981ZM17.4216 194.588V179.765V164.941H32.2451H47.0686V179.765V194.588H32.2451H17.4216ZM33.8922 194.588V179.765V164.941H48.7157H63.5392V179.765V194.588H48.7157H33.8922ZM50.3627 194.588V179.765V164.941H65.1863H80.0098V179.765V194.588H65.1863H50.3627ZM0.950981 178.118V163.294V148.471H15.7745H30.598V163.294V178.118H15.7745H0.950981ZM0.950981 161.647V146.824V132H15.7745H30.598V146.824V161.647H15.7745H0.950981ZM0.950981 145.176V130.353V115.529H15.7745H30.598V130.353V145.176H15.7745H0.950981ZM0.950981 128.706V113.882V99.0588H15.7745H30.598V113.882V128.706H15.7745H0.950981ZM0.950981 112.235V97.4118V82.5882H15.7745H30.598V97.4118V112.235H15.7745H0.950981ZM0.950981 95.7647V80.9412V66.1176H15.7745H30.598V80.9412V95.7647H15.7745H0.950981ZM0.950981 79.2941V64.4706V49.6471H15.7745H30.598V64.4706V79.2941H15.7745H0.950981ZM0.950981 62.8235V48V33.1765H15.7745H30.598V48V62.8235H15.7745H0.950981ZM0.950981 46.3529V31.5294V16.7059H15.7745H30.598V31.5294V46.3529H15.7745H0.950981ZM0.950981 29.8823V15.0588V0.235289H15.7745H30.598V15.0588V29.8823H15.7745H0.950981Z" fill="#FF1313"/>
</svg>
